<svg xmlns="http://www.w3.org/2000/svg" xmlns:xlink="http://www.w3.org/1999/xlink" viewBox="0 0 71 81" fill="#fff" fill-rule="evenodd" stroke="#000" stroke-linecap="round" stroke-linejoin="round"><use xlink:href="#A" x=".5" y=".5"/><symbol id="A" overflow="visible"><g stroke="none"><path d="M66.719 10.959l-7.656-7.671L55.781 0h0H0v80h70V14.247h0z" fill="#0078d7"/><path d="M55.781 3.288h-52.5v73.425h63.437V14.247H62.89h-7.109z"/><path d="M56.329 43.836c-2.187 0-3.281 1.096-3.281 3.836v4.384c0 2.74-.547 4.383-1.641 5.479s-3.828 1.644-6.562 1.644v-3.288c1.094 0 2.188-.548 2.188-.548.547-.548.547-1.644.547-2.74V48.22c0-3.288 1.094-5.479 3.281-6.027h0c-2.188-.548-3.281-2.74-3.281-6.575v-4.384c0-2.192-1.094-3.836-3.281-3.836v-3.836h1.641c2.188 0 3.828.548 4.922 1.644s1.64 3.288 1.64 6.027v4.384c0 2.192 1.094 3.836 3.281 3.836l.547 4.384h0zM26.25 59.178c-2.734 0-5.469-.548-6.562-1.644s-1.641-2.74-1.641-5.479v-4.932c-.547-2.192-1.641-3.836-3.281-3.836v-3.836c2.187 0 2.734-1.096 2.734-3.836v-3.836c0-2.74.547-4.384 2.188-5.48 1.094-2.192 3.281-2.74 6.016-2.74v3.836c-2.187.548-3.281 1.644-3.281 4.384v3.836c0 3.288-1.094 5.479-3.281 6.027h0c2.188.548 3.281 2.74 3.281 6.027v3.836c0 1.096.547 2.192.547 2.74.547 1.096 1.094 1.096 2.188 1.096v3.288h1.094z" fill="#0078d7"/></g></symbol></svg>